<svg width="452" height="548" viewBox="0 0 452 548" fill="none" xmlns="http://www.w3.org/2000/svg">
<path d="M10.8964 81.0535C10.8964 81.0535 55.2833 179.214 19.7455 275.504C-19.966 383.097 12.5014 469.954 12.5014 469.954L258.006 469.954C258.006 469.954 225.596 383.112 265.276 275.534C300.8 179.223 256.195 81.0535 256.195 81.0535L10.8964 81.0535Z" fill="black"/>
<path d="M413.892 242L279 413.747H341.223L317.108 548L452 376.253H389.777L413.892 242Z" fill="#2986E4"/>
<path d="M275.766 2.87296C276.223 -0.957653 281.799 -0.957653 282.255 2.87296L286.081 35.0083C291.02 76.5037 323.841 109.22 365.47 114.143L397.708 117.956C401.552 118.411 401.552 123.97 397.708 124.425L365.47 128.238C323.841 133.161 291.02 165.877 286.081 207.372L282.255 239.507C281.799 243.339 276.223 243.339 275.766 239.507L271.941 207.372C267.002 165.877 234.18 133.161 192.552 128.238L160.313 124.425C156.47 123.97 156.47 118.411 160.313 117.956L192.552 114.143C234.18 109.22 267.002 76.5037 271.941 35.0083L275.766 2.87296Z" fill="white"/>
</svg>
