<svg fill="none" height="55.2" viewBox="18.4 18.4 55.2 55.2" width="55.2" xmlns="http://www.w3.org/2000/svg"><path d="m62.4748 30.562c5.3952 7.9815 8.0596 16.9844 7.0636 27.3488-.0042.0439-.0269.0841-.0627.1106-4.0857 3.0186-8.0441 4.8505-11.947 6.0654-.0304.0093-.063.0088-.093-.0015-.0301-.0102-.0563-.0297-.0748-.0556-.9017-1.2623-1.721-2.5932-2.4388-3.9907-.0412-.0824-.0035-.1815.0812-.2139 1.3012-.4933 2.5385-1.0845 3.7286-1.7845.0937-.0553.0997-.1905.0131-.2554-.2526-.1886-.5028-.3869-.7422-.5852-.0448-.0366-.1051-.0438-.1559-.0192-7.7264 3.59-16.1903 3.59-24.008 0-.0508-.0228-.1111-.015-.1547.021-.2388.1983-.4896.3948-.7398.5834-.0866.0649-.0795.2001.0149.2554 1.1901.6867 2.4274 1.2912 3.7267 1.7869.0842.0324.1242.1291.0824.2115-.7022 1.3993-1.5215 2.7302-2.4399 3.9925-.04.0511-.1057.0745-.1678.0553-3.8844-1.2149-7.8428-3.0468-11.9285-6.0654-.034-.0265-.0585-.0685-.0621-.1124-.8324-8.9651.8641-18.0425 7.057-27.3488.015-.0247.0377-.0439.0639-.0553 3.0473-1.4072 6.3118-2.4424 9.7239-3.0336.0621-.0096.1242.0192.1564.0745.4216.751.9035 1.7142 1.2296 2.5013 3.5965-.5528 7.2493-.5528 10.9211 0 .326-.7703.7912-1.7503 1.211-2.5013.0149-.0274.0381-.0494.0662-.0628s.0597-.0175.0902-.0117c3.4139.593 6.6785 1.6282 9.7233 3.0336.0268.0114.0489.0306.0621.0571zm-20.2455 17.0457c.0376-2.6503-1.8828-4.8434-4.2934-4.8434-2.391 0-4.2929 2.1739-4.2929 4.8434 0 2.6689 1.9395 4.8427 4.2929 4.8427 2.3915 0 4.2934-2.1738 4.2934-4.8427zm15.8732 0c.0376-2.6503-1.8828-4.8434-4.2928-4.8434-2.3916 0-4.2935 2.1739-4.2935 4.8434 0 2.6689 1.9395 4.8427 4.2935 4.8427 2.41 0 4.2928-2.1738 4.2928-4.8427z" fill="#5865f2"/></svg>