<svg fill="none" height="60.72" viewBox="15.64 15.64 60.72 60.72" width="60.72" xmlns="http://www.w3.org/2000/svg"><path d="m48.8477 46.0001 4.9711 5.4167 6.6845 4.0722 1.1656-9.4555-1.1656-9.2444-6.8127 3.5777z" fill="#00832d"/><path d="m20 54.611v8.0555c0 1.8417 1.5648 3.3333 3.4967 3.3333h8.4504l1.7483-6.0888-1.7483-5.3-5.7987-1.6667z" fill="#0066da"/><path d="m31.9471 26-11.9471 11.3888 6.1484 1.6667 5.7987-1.6667 1.7192-5.2277z" fill="#e94235"/><path d="m31.9471 37.3896h-11.9471v17.2222h11.9471z" fill="#2684fc"/><path d="m68.1362 30.8225-7.6345 5.9667v18.6999l7.6694 5.9944c1.1481.8555 2.8265.075 2.8265-1.3167v-28.0554c0-1.4083-1.7163-2.1805-2.8614-1.2889zm-19.2902 15.1777v8.6111h-16.9007v11.3888h25.0597c1.9319 0 3.4967-1.4916 3.4967-3.3333v-7.1777z" fill="#00ac47"/><path d="m57.005 26h-25.0597v11.3888h16.9007v8.6111l11.6557-9.2055v-7.4611c0-1.8416-1.5648-3.3333-3.4967-3.3333z" fill="#ffba00"/></svg>