<svg width="19" height="16" viewBox="0 0 19 16" fill="none" xmlns="http://www.w3.org/2000/svg">
<path d="M0.719118 -7.73897e-07C0.719118 -7.73897e-07 3.65017 4.03849 1.30346 8C-1.31886 12.4266 0.825099 16 0.825099 16L17.0368 16C17.0368 16 14.8966 12.4272 17.5168 8.00124C19.8626 4.03884 16.9172 -6.58562e-08 16.9172 -6.58562e-08L0.719118 -7.73897e-07Z" fill="white"/>
<path d="M8.9644 3.26355C8.98214 3.11413 9.19896 3.11413 9.21671 3.26355L9.36544 4.51706C9.5575 6.13567 10.8336 7.41182 12.4522 7.60387L13.7057 7.75261C13.8552 7.77035 13.8552 7.98717 13.7057 8.00492L12.4522 8.15365C10.8336 8.3457 9.5575 9.62185 9.36544 11.2405L9.21671 12.494C9.19896 12.6434 8.98214 12.6434 8.9644 12.494L8.81567 11.2405C8.62361 9.62185 7.34746 8.3457 5.72885 8.15365L4.47535 8.00492C4.32593 7.98717 4.32593 7.77035 4.47535 7.75261L5.72885 7.60387C7.34746 7.41182 8.62361 6.13567 8.81567 4.51706L8.9644 3.26355Z" fill="black"/>
</svg>
