<svg width="19" height="16" viewBox="0 0 19 16" fill="none" xmlns="http://www.w3.org/2000/svg">
<path d="M1.29529 -7.73898e-07C1.29529 -7.73898e-07 4.22634 4.03849 1.87963 8C-0.742686 12.4266 1.40127 16 1.40127 16L17.613 16C17.613 16 15.4728 12.4272 18.093 8.00124C20.4388 4.03884 17.4934 -6.58562e-08 17.4934 -6.58562e-08L1.29529 -7.73898e-07Z" fill="black"/>
<path d="M9.54057 3.26355C9.55832 3.11413 9.77514 3.11413 9.79288 3.26355L9.94161 4.51706C10.1337 6.13567 11.4098 7.41182 13.0284 7.60387L14.2819 7.75261C14.4314 7.77035 14.4314 7.98717 14.2819 8.00492L13.0284 8.15365C11.4098 8.3457 10.1337 9.62186 9.94161 11.2405L9.79288 12.494C9.77514 12.6434 9.55832 12.6434 9.54057 12.494L9.39184 11.2405C9.19978 9.62186 7.92363 8.3457 6.30502 8.15365L5.05152 8.00492C4.9021 7.98717 4.9021 7.77035 5.05152 7.75261L6.30502 7.60387C7.92363 7.41182 9.19978 6.13567 9.39184 4.51706L9.54057 3.26355Z" fill="white"/>
</svg>
